<mxfile host="app.diagrams.net" agent="Mozilla/5.0 (Windows NT 10.0; Win64; x64) AppleWebKit/537.36 (KHTML, like Gecko) Chrome/140.0.0.0 Safari/537.36" version="28.2.5">
  <diagram name="Conceptual Data Model" id="scUkWa6X0jHISSrWYuKr">
    <mxGraphModel dx="786" dy="463" grid="1" gridSize="10" guides="1" tooltips="1" connect="1" arrows="1" fold="1" page="1" pageScale="1" pageWidth="850" pageHeight="1100" math="0" shadow="0">
      <root>
        <mxCell id="0" />
        <mxCell id="1" parent="0" />
        <mxCell id="8Y3RgUavMwCPovXqIznc-1" value="Customer" style="rounded=1;whiteSpace=wrap;html=1;fillColor=#fff2cc;strokeColor=#d6b656;" parent="1" vertex="1">
          <mxGeometry x="40" y="120" width="120" height="40" as="geometry" />
        </mxCell>
        <mxCell id="8Y3RgUavMwCPovXqIznc-2" value="Account" style="rounded=1;whiteSpace=wrap;html=1;fillColor=#fff2cc;strokeColor=#d6b656;" parent="1" vertex="1">
          <mxGeometry x="342" y="120" width="120" height="40" as="geometry" />
        </mxCell>
        <mxCell id="8Y3RgUavMwCPovXqIznc-3" value="Transaction" style="rounded=1;whiteSpace=wrap;html=1;fillColor=#fff2cc;strokeColor=#d6b656;" parent="1" vertex="1">
          <mxGeometry x="510" y="223" width="120" height="40" as="geometry" />
        </mxCell>
        <mxCell id="8Y3RgUavMwCPovXqIznc-4" value="Payment" style="rounded=1;whiteSpace=wrap;html=1;fillColor=#fff2cc;strokeColor=#d6b656;" parent="1" vertex="1">
          <mxGeometry x="342" y="223" width="120" height="40" as="geometry" />
        </mxCell>
        <mxCell id="8Y3RgUavMwCPovXqIznc-5" value="Credit Card" style="rounded=1;whiteSpace=wrap;html=1;fillColor=#fff2cc;strokeColor=#d6b656;" parent="1" vertex="1">
          <mxGeometry x="40" y="225" width="120" height="40" as="geometry" />
        </mxCell>
        <mxCell id="8Y3RgUavMwCPovXqIznc-6" value="Loan" style="rounded=1;whiteSpace=wrap;html=1;fillColor=#fff2cc;strokeColor=#d6b656;" parent="1" vertex="1">
          <mxGeometry x="170" y="225" width="120" height="40" as="geometry" />
        </mxCell>
        <mxCell id="R4acMm73q5vkeBNtTYpv-2" style="edgeStyle=orthogonalEdgeStyle;rounded=0;orthogonalLoop=1;jettySize=auto;html=1;entryX=0;entryY=0.5;entryDx=0;entryDy=0;endArrow=ERoneToMany;endFill=0;fillColor=#fff2cc;strokeColor=#d6b656;" edge="1" parent="1" source="8Y3RgUavMwCPovXqIznc-7" target="8Y3RgUavMwCPovXqIznc-8">
          <mxGeometry relative="1" as="geometry" />
        </mxCell>
        <mxCell id="R4acMm73q5vkeBNtTYpv-3" style="edgeStyle=orthogonalEdgeStyle;rounded=0;orthogonalLoop=1;jettySize=auto;html=1;exitX=0.5;exitY=1;exitDx=0;exitDy=0;fillColor=#fff2cc;strokeColor=#d6b656;endArrow=ERoneToMany;endFill=0;" edge="1" parent="1" source="8Y3RgUavMwCPovXqIznc-7" target="8Y3RgUavMwCPovXqIznc-1">
          <mxGeometry relative="1" as="geometry" />
        </mxCell>
        <mxCell id="8Y3RgUavMwCPovXqIznc-7" value="Branch" style="rounded=1;whiteSpace=wrap;html=1;fillColor=#fff2cc;strokeColor=#d6b656;" parent="1" vertex="1">
          <mxGeometry x="40" y="30" width="120" height="40" as="geometry" />
        </mxCell>
        <mxCell id="8Y3RgUavMwCPovXqIznc-8" value="Employee" style="rounded=1;whiteSpace=wrap;html=1;fillColor=#fff2cc;strokeColor=#d6b656;" parent="1" vertex="1">
          <mxGeometry x="240" y="30" width="120" height="40" as="geometry" />
        </mxCell>
        <mxCell id="8Y3RgUavMwCPovXqIznc-9" style="edgeStyle=orthogonalEdgeStyle;rounded=0;html=1;exitX=1;exitY=0.5;exitPerimeter=1;entryX=0;entryY=0.5;entryPerimeter=1;fillColor=#fff2cc;strokeColor=#d6b656;endArrow=ERoneToMany;endFill=0;" parent="1" source="8Y3RgUavMwCPovXqIznc-1" target="8Y3RgUavMwCPovXqIznc-2" edge="1">
          <mxGeometry relative="1" as="geometry" />
        </mxCell>
        <mxCell id="8Y3RgUavMwCPovXqIznc-10" style="edgeStyle=orthogonalEdgeStyle;rounded=0;html=1;exitX=0.5;exitY=1;entryX=0.5;entryY=0;fillColor=#fff2cc;strokeColor=#d6b656;endArrow=ERoneToMany;endFill=0;entryDx=0;entryDy=0;exitDx=0;exitDy=0;" parent="1" source="8Y3RgUavMwCPovXqIznc-2" target="8Y3RgUavMwCPovXqIznc-3" edge="1">
          <mxGeometry relative="1" as="geometry" />
        </mxCell>
        <mxCell id="8Y3RgUavMwCPovXqIznc-11" style="edgeStyle=orthogonalEdgeStyle;rounded=0;html=1;exitX=0.5;exitY=1;exitPerimeter=1;entryX=0.5;entryY=0;entryPerimeter=1;fillColor=#fff2cc;strokeColor=#d6b656;" parent="1" source="8Y3RgUavMwCPovXqIznc-2" target="8Y3RgUavMwCPovXqIznc-4" edge="1">
          <mxGeometry relative="1" as="geometry" />
        </mxCell>
        <mxCell id="8Y3RgUavMwCPovXqIznc-12" style="edgeStyle=orthogonalEdgeStyle;rounded=0;html=1;exitX=0.5;exitY=1;exitPerimeter=1;entryX=0.5;entryY=0;entryPerimeter=1;fillColor=#fff2cc;strokeColor=#d6b656;" parent="1" source="8Y3RgUavMwCPovXqIznc-1" target="8Y3RgUavMwCPovXqIznc-5" edge="1">
          <mxGeometry relative="1" as="geometry" />
        </mxCell>
        <mxCell id="8Y3RgUavMwCPovXqIznc-13" style="edgeStyle=orthogonalEdgeStyle;rounded=0;html=1;exitX=0.5;exitY=1;exitPerimeter=1;entryX=0.5;entryY=0;entryPerimeter=1;fillColor=#fff2cc;strokeColor=#d6b656;endArrow=ERoneToMany;endFill=0;" parent="1" source="8Y3RgUavMwCPovXqIznc-1" target="8Y3RgUavMwCPovXqIznc-6" edge="1">
          <mxGeometry relative="1" as="geometry" />
        </mxCell>
      </root>
    </mxGraphModel>
  </diagram>
</mxfile>
